<svg preserveAspectRatio="none" overflow="visible" style="display: block;" width="28" height="28" viewBox="0 0 28 28" fill="none" xmlns="http://www.w3.org/2000/svg">
<g id="Ornament / Acanthus Crest">
<path id="Vector" d="M14 25V5M14 20C10.3 20 7.5 17.9 5.3 14.2C9.1 14 12.2 15.1 14 18C15.8 15.1 18.9 14 22.7 14.2C20.5 17.9 17.7 20 14 20ZM14 14.8C11 14.8 8.8 13.1 7.2 10.3C10.1 10.2 12.4 11 14 13C15.6 11 17.9 10.2 20.8 10.3C19.2 13.1 17 14.8 14 14.8ZM14 9.7C11.8 9.7 10.2 8.3 9.2 6.2C11.2 6.2 12.8 6.8 14 8.2C15.2 6.8 16.8 6.2 18.8 6.2C17.8 8.3 16.2 9.7 14 9.7Z" stroke="#445140" stroke-width="1.35" stroke-linecap="round" stroke-linejoin="round"/>
<path id="Vector_2" d="M9 24.3C10.8 23.1 12.5 22.7 14 23.2C15.5 22.7 17.2 23.1 19 24.3" stroke="#B08A4D" stroke-width="1.25" stroke-linecap="round"/>
<path id="Vector_3" d="M14 4.6C14.7732 4.6 15.4 3.9732 15.4 3.2C15.4 2.4268 14.7732 1.8 14 1.8C13.2268 1.8 12.6 2.4268 12.6 3.2C12.6 3.9732 13.2268 4.6 14 4.6Z" fill="#B08A4D"/>
</g>
</svg>
