<svg preserveAspectRatio="none" overflow="visible" style="display: block;" width="716" height="178" viewBox="0 0 716 178" fill="none" xmlns="http://www.w3.org/2000/svg">
<g id="Ornament / Hero Double Rule and Corners">
<path id="Vector" d="M701 6.5H15C10.3056 6.5 6.5 10.3056 6.5 15V163C6.5 167.694 10.3056 171.5 15 171.5H701C705.694 171.5 709.5 167.694 709.5 163V15C709.5 10.3056 705.694 6.5 701 6.5Z" stroke="#D1BC8D"/>
<g id="Group">
<path id="Vector_2" d="M13 39C14 27 22 17 36 13M14 32C22 30 28 24 30 16M20 26C15 25 12 21 11 16M25 21C24 16 28 11 34 9" stroke="#B08A4D" stroke-width="1.25" stroke-linecap="round" stroke-linejoin="round"/>
<path id="Vector_3" d="M703 39C702 27 694 17 680 13M702 32C694 30 688 24 686 16M696 26C701 25 704 21 705 16M691 21C692 16 688 11 682 9" stroke="#B08A4D" stroke-width="1.25" stroke-linecap="round" stroke-linejoin="round"/>
<path id="Vector_4" d="M13 139C14 151 22 161 36 165M14 146C22 148 28 154 30 162M20 152C15 153 12 157 11 162M25 157C24 162 28 167 34 169" stroke="#B08A4D" stroke-width="1.25" stroke-linecap="round" stroke-linejoin="round"/>
<path id="Vector_5" d="M703 139C702 151 694 161 680 165M702 146C694 148 688 154 686 162M696 152C701 153 704 157 705 162M691 157C692 162 688 167 682 169" stroke="#B08A4D" stroke-width="1.25" stroke-linecap="round" stroke-linejoin="round"/>
</g>
<g id="Group_2">
<path id="Vector_6" d="M12 14.5C12.8284 14.5 13.5 13.8284 13.5 13C13.5 12.1716 12.8284 11.5 12 11.5C11.1716 11.5 10.5 12.1716 10.5 13C10.5 13.8284 11.1716 14.5 12 14.5Z" fill="#445140"/>
<path id="Vector_7" d="M704 14.5C704.828 14.5 705.5 13.8284 705.5 13C705.5 12.1716 704.828 11.5 704 11.5C703.172 11.5 702.5 12.1716 702.5 13C702.5 13.8284 703.172 14.5 704 14.5Z" fill="#445140"/>
<path id="Vector_8" d="M12 166.5C12.8284 166.5 13.5 165.828 13.5 165C13.5 164.172 12.8284 163.5 12 163.5C11.1716 163.5 10.5 164.172 10.5 165C10.5 165.828 11.1716 166.5 12 166.5Z" fill="#445140"/>
<path id="Vector_9" d="M704 166.5C704.828 166.5 705.5 165.828 705.5 165C705.5 164.172 704.828 163.5 704 163.5C703.172 163.5 702.5 164.172 702.5 165C702.5 165.828 703.172 166.5 704 166.5Z" fill="#445140"/>
</g>
</g>
</svg>
