<svg width="18" height="18" viewBox="0 0 18 18" fill="none" xmlns="http://www.w3.org/2000/svg">
<path d="M9.00008 16.0714V3.21429M9.00008 12.8572C6.62151 12.8572 4.82151 11.5072 3.40723 9.12858C5.85008 9.00001 7.84294 9.70715 9.00008 11.5714C10.1572 9.70715 12.1501 9.00001 14.5929 9.12858C13.1787 11.5072 11.3787 12.8572 9.00008 12.8572ZM9.00008 9.51429C7.07151 9.51429 5.65723 8.42144 4.62865 6.62144C6.49294 6.55715 7.97151 7.07144 9.00008 8.35715C10.0287 7.07144 11.5072 6.55715 13.3715 6.62144C12.3429 8.42144 10.9287 9.51429 9.00008 9.51429ZM9.00008 6.23572C7.5858 6.23572 6.55723 5.33572 5.91437 3.98572C7.20008 3.98572 8.22866 4.37144 9.00008 5.27144C9.77151 4.37144 10.8001 3.98572 12.0858 3.98572C11.4429 5.33572 10.4144 6.23572 9.00008 6.23572Z" stroke="#D1BC8D" stroke-linecap="round" stroke-linejoin="round"/>
<path d="M5.78564 15.6214C6.94279 14.85 8.03564 14.5928 8.99993 14.9143C9.96422 14.5928 11.0571 14.85 12.2142 15.6214" stroke="#D1BC8D" stroke-linecap="round"/>
<path d="M9.0001 2.95713C9.49715 2.95713 9.9001 2.55419 9.9001 2.05714C9.9001 1.56008 9.49715 1.15714 9.0001 1.15714C8.50304 1.15714 8.1001 1.56008 8.1001 2.05714C8.1001 2.55419 8.50304 2.95713 9.0001 2.95713Z" fill="#D1BC8D"/>
</svg>
